<svg width="23" height="23" viewBox="0 0 23 23" fill="none" xmlns="http://www.w3.org/2000/svg">
<path d="M14.8359 5.47011C13.1887 4.09252 10.763 4.30215 9.23563 5.88938L8.66663 6.48834L8.06767 5.88938C6.83981 4.63158 4.3841 3.85293 2.46744 5.47011C0.580731 7.08729 0.490888 9.96228 2.16796 11.6992L7.97783 17.6888C8.15751 17.8685 8.3971 17.9583 8.63668 17.9583C8.90621 17.9583 9.14579 17.8685 9.32548 17.6888L15.1353 11.6992C16.8124 9.96228 16.7226 7.08729 14.8359 5.47011ZM14.4465 11.0404L8.66663 17.0299L2.85676 11.0404C1.71875 9.84249 1.47916 7.5964 3.09634 6.21881C4.74347 4.81126 6.66013 5.82949 7.37887 6.54823L8.66663 7.86593L9.92443 6.54823C10.6132 5.82949 12.5598 4.81126 14.207 6.21881C15.8241 7.5964 15.5846 9.84249 14.4465 11.0404Z" fill="black"/>
<path d="M14.8359 5.47011L14.9024 5.3925L14.9014 5.3917L14.8359 5.47011ZM9.23563 5.88938L9.16197 5.8185L9.16152 5.81898L9.23563 5.88938ZM8.66663 6.48834L8.59434 6.56062L8.6685 6.63478L8.74074 6.55874L8.66663 6.48834ZM8.06767 5.88938L7.99452 5.96079L7.99539 5.96166L8.06767 5.88938ZM2.46744 5.47011L2.40152 5.39198L2.40092 5.3925L2.46744 5.47011ZM2.16796 11.6992L2.09442 11.7702L2.09459 11.7704L2.16796 11.6992ZM7.97783 17.6888L7.90445 17.76L7.90555 17.7611L7.97783 17.6888ZM9.32548 17.6888L9.39777 17.7611L9.39885 17.76L9.32548 17.6888ZM15.1353 11.6992L15.2087 11.7704L15.2089 11.7702L15.1353 11.6992ZM14.4465 11.0404L14.5201 11.1114L14.5207 11.1108L14.4465 11.0404ZM8.66663 17.0299L8.59325 17.1011L8.66682 17.177L8.74018 17.1009L8.66663 17.0299ZM2.85676 11.0404L2.78265 11.1108L2.78339 11.1116L2.85676 11.0404ZM3.09634 6.21881L3.16263 6.29662L3.16275 6.29652L3.09634 6.21881ZM7.37887 6.54823L7.45198 6.47678L7.45115 6.47595L7.37887 6.54823ZM8.66663 7.86593L8.59352 7.93738L8.66749 8.01307L8.74057 7.93652L8.66663 7.86593ZM9.92443 6.54823L9.85063 6.4775L9.85049 6.47765L9.92443 6.54823ZM14.207 6.21881L14.1406 6.29652L14.1407 6.29662L14.207 6.21881ZM14.9014 5.3917C13.2097 3.97681 10.7234 4.19587 9.16198 5.8185L9.30929 5.96026C10.8026 4.40844 13.1678 4.20823 14.7703 5.54853L14.9014 5.3917ZM9.16152 5.81898L8.59252 6.41793L8.74074 6.55874L9.30974 5.95979L9.16152 5.81898ZM8.73891 6.41606L8.13995 5.8171L7.99539 5.96166L8.59434 6.56062L8.73891 6.41606ZM8.14082 5.81798C6.88911 4.53574 4.37248 3.72899 2.40152 5.39199L2.53336 5.54824C4.39571 3.97688 6.79051 4.72741 7.99452 5.96079L8.14082 5.81798ZM2.40092 5.3925C0.46887 7.04854 0.377095 9.99159 2.09442 11.7702L2.2415 11.6282C0.604681 9.93297 0.692592 7.12605 2.53397 5.54773L2.40092 5.3925ZM2.09459 11.7704L7.90445 17.76L8.0512 17.6176L2.24134 11.6281L2.09459 11.7704ZM7.90555 17.7611C8.10566 17.9612 8.37181 18.0605 8.63668 18.0605V17.8561C8.42238 17.8561 8.20937 17.7758 8.05011 17.6165L7.90555 17.7611ZM8.63668 18.0605C8.92978 18.0605 9.19653 17.9623 9.39776 17.7611L9.2532 17.6165C9.09505 17.7747 8.88264 17.8561 8.63668 17.8561V18.0605ZM9.39885 17.76L15.2087 11.7704L15.062 11.6281L9.2521 17.6176L9.39885 17.76ZM15.2089 11.7702C16.9262 9.99159 16.8344 7.04854 14.9024 5.3925L14.7693 5.54773C16.6107 7.12605 16.6986 9.93297 15.0618 11.6282L15.2089 11.7702ZM14.373 10.9694L8.59307 16.959L8.74018 17.1009L14.5201 11.1114L14.373 10.9694ZM8.74 16.9588L2.93013 10.9692L2.78339 11.1116L8.59325 17.1011L8.74 16.9588ZM2.93087 10.97C1.82586 9.80683 1.59784 7.62959 3.16263 6.29662L3.03006 6.14099C1.36049 7.56321 1.61163 9.87815 2.78265 11.1108L2.93087 10.97ZM3.16275 6.29652C3.95824 5.61674 4.81516 5.52325 5.56404 5.68605C6.31737 5.84982 6.95922 6.27314 7.30659 6.62051L7.45115 6.47595C7.07978 6.10457 6.40393 5.65942 5.60747 5.48627C4.80654 5.31216 3.88157 5.41333 3.02993 6.1411L3.16275 6.29652ZM7.30576 6.61968L8.59352 7.93738L8.73973 7.79449L7.45198 6.47679L7.30576 6.61968ZM8.74057 7.93652L9.99837 6.61881L9.85049 6.47765L8.59268 7.79535L8.74057 7.93652ZM9.99823 6.61896C10.3295 6.27328 10.9706 5.84993 11.7279 5.68607C12.4808 5.52318 13.3452 5.61686 14.1406 6.29652L14.2734 6.1411C13.4216 5.41321 12.4891 5.31223 11.6847 5.48625C10.8848 5.65931 10.2081 6.10444 9.85063 6.4775L9.99823 6.61896ZM14.1407 6.29662C15.7055 7.62959 15.4774 9.80683 14.3724 10.97L14.5207 11.1108C15.6917 9.87815 15.9428 7.56321 14.2732 6.14099L14.1407 6.29662Z" fill="black"/>
<circle cx="17.3555" cy="9.11108" r="5.11108" fill="#F6EFE7"/>
<path d="M15.9795 9.19892C15.9795 8.90698 16.0021 8.65848 16.0473 8.45342C16.096 8.24489 16.1585 8.07111 16.235 7.93209C16.3114 7.78959 16.3966 7.67664 16.4904 7.59323C16.5877 7.50634 16.6851 7.44204 16.7824 7.40033C16.8832 7.35515 16.9787 7.32561 17.0691 7.31171C17.1629 7.2978 17.2446 7.29085 17.3141 7.29085C17.3836 7.29085 17.4636 7.2978 17.5539 7.31171C17.6478 7.32561 17.7434 7.35515 17.8407 7.40033C17.9415 7.44204 18.0388 7.50634 18.1326 7.59323C18.2299 7.67664 18.3168 7.78959 18.3933 7.93209C18.4698 8.07111 18.5306 8.24489 18.5758 8.45342C18.6244 8.65848 18.6487 8.90698 18.6487 9.19892C18.6487 9.49087 18.6244 9.74111 18.5758 9.94964C18.5306 10.1547 18.4698 10.3285 18.3933 10.471C18.3168 10.61 18.2299 10.7229 18.1326 10.8098C18.0388 10.8932 17.9415 10.9575 17.8407 11.0027C17.7434 11.0444 17.6478 11.0722 17.5539 11.0861C17.4636 11.1 17.3836 11.107 17.3141 11.107C17.2446 11.107 17.1629 11.1 17.0691 11.0861C16.9787 11.0722 16.8832 11.0444 16.7824 11.0027C16.6851 10.9575 16.5877 10.8932 16.4904 10.8098C16.3966 10.7229 16.3114 10.61 16.235 10.471C16.1585 10.3285 16.096 10.1547 16.0473 9.94964C16.0021 9.74111 15.9795 9.49087 15.9795 9.19892ZM16.6051 9.19892C16.6051 9.31362 16.6121 9.44742 16.626 9.60035C16.6434 9.7498 16.6764 9.89229 16.725 10.0278C16.7737 10.1634 16.8449 10.2781 16.9388 10.3719C17.0326 10.4658 17.1577 10.5127 17.3141 10.5127C17.4705 10.5127 17.5957 10.4658 17.6895 10.3719C17.7833 10.2781 17.8546 10.1634 17.9032 10.0278C17.9519 9.89229 17.9832 9.7498 17.9971 9.60035C18.0145 9.44742 18.0231 9.31362 18.0231 9.19892C18.0231 9.08423 18.0145 8.95216 17.9971 8.80271C17.9832 8.64979 17.9519 8.50555 17.9032 8.37001C17.8546 8.23446 17.7833 8.11977 17.6895 8.02593C17.5957 7.93209 17.4705 7.88517 17.3141 7.88517C17.1577 7.88517 17.0326 7.93209 16.9388 8.02593C16.8449 8.11977 16.7737 8.23446 16.725 8.37001C16.6764 8.50555 16.6434 8.64979 16.626 8.80271C16.6121 8.95216 16.6051 9.08423 16.6051 9.19892Z" fill="black"/>
</svg>
