<svg width="23" height="22" viewBox="0 0 23 22" fill="none" xmlns="http://www.w3.org/2000/svg">
<path d="M12.3125 5.625C12.3125 3.57422 10.6133 1.875 8.5625 1.875C6.48242 1.875 4.8125 3.57422 4.8125 5.625H2V14.5312C2 15.8496 3.02539 16.875 4.34375 16.875H12.7812C14.0703 16.875 15.125 15.8496 15.125 14.5312V5.625H12.3125ZM8.5625 2.8125C10.0859 2.8125 11.375 4.10156 11.375 5.625H5.75C5.75 4.10156 7.00977 2.8125 8.5625 2.8125ZM14.1875 14.5312C14.1875 15.3223 13.543 15.9375 12.7812 15.9375H4.34375C3.55273 15.9375 2.9375 15.3223 2.9375 14.5312V6.5625H4.8125V7.96875C4.8125 8.23242 5.01758 8.4375 5.28125 8.4375C5.51562 8.4375 5.75 8.23242 5.75 7.96875V6.5625H11.375V7.96875C11.375 8.23242 11.5801 8.4375 11.8438 8.4375C12.0781 8.4375 12.3125 8.23242 12.3125 7.96875V6.5625H14.1875V14.5312Z" fill="black"/>
<path d="M12.3125 5.625H12.2125V5.725H12.3125V5.625ZM4.8125 5.625V5.725H4.9125V5.625H4.8125ZM2 5.625V5.525H1.9V5.625H2ZM15.125 5.625H15.225V5.525H15.125V5.625ZM11.375 5.625V5.725H11.475V5.625H11.375ZM5.75 5.625H5.65V5.725H5.75V5.625ZM2.9375 6.5625V6.4625H2.8375V6.5625H2.9375ZM4.8125 6.5625H4.9125V6.4625H4.8125V6.5625ZM5.75 6.5625V6.4625H5.65V6.5625H5.75ZM11.375 6.5625H11.475V6.4625H11.375V6.5625ZM12.3125 6.5625V6.4625H12.2125V6.5625H12.3125ZM14.1875 6.5625H14.2875V6.4625H14.1875V6.5625ZM12.4125 5.625C12.4125 3.51899 10.6685 1.775 8.5625 1.775V1.975C10.5581 1.975 12.2125 3.62945 12.2125 5.625H12.4125ZM8.5625 1.775C6.42669 1.775 4.7125 3.5195 4.7125 5.625H4.9125C4.9125 3.62894 6.53816 1.975 8.5625 1.975V1.775ZM4.8125 5.525H2V5.725H4.8125V5.525ZM1.9 5.625V14.5312H2.1V5.625H1.9ZM1.9 14.5312C1.9 15.9048 2.97016 16.975 4.34375 16.975V16.775C3.08062 16.775 2.1 15.7944 2.1 14.5312H1.9ZM4.34375 16.975H12.7812V16.775H4.34375V16.975ZM12.7812 16.975C14.1247 16.975 15.225 15.9057 15.225 14.5312H15.025C15.025 15.7936 14.0159 16.775 12.7812 16.775V16.975ZM15.225 14.5312V5.625H15.025V14.5312H15.225ZM15.125 5.525H12.3125V5.725H15.125V5.525ZM8.5625 2.9125C10.0307 2.9125 11.275 4.15679 11.275 5.625H11.475C11.475 4.04633 10.1412 2.7125 8.5625 2.7125V2.9125ZM11.375 5.525H5.75V5.725H11.375V5.525ZM5.85 5.625C5.85 4.15611 7.06567 2.9125 8.5625 2.9125V2.7125C6.95386 2.7125 5.65 4.04701 5.65 5.625H5.85ZM14.0875 14.5312C14.0875 15.2657 13.4891 15.8375 12.7812 15.8375V16.0375C13.5968 16.0375 14.2875 15.3788 14.2875 14.5312H14.0875ZM12.7812 15.8375H4.34375V16.0375H12.7812V15.8375ZM4.34375 15.8375C3.60796 15.8375 3.0375 15.267 3.0375 14.5312H2.8375C2.8375 15.3775 3.49751 16.0375 4.34375 16.0375V15.8375ZM3.0375 14.5312V6.5625H2.8375V14.5312H3.0375ZM2.9375 6.6625H4.8125V6.4625H2.9375V6.6625ZM4.7125 6.5625V7.96875H4.9125V6.5625H4.7125ZM4.7125 7.96875C4.7125 8.28765 4.96235 8.5375 5.28125 8.5375V8.3375C5.07281 8.3375 4.9125 8.17719 4.9125 7.96875H4.7125ZM5.28125 8.5375C5.5668 8.5375 5.85 8.29162 5.85 7.96875H5.65C5.65 8.17323 5.46445 8.3375 5.28125 8.3375V8.5375ZM5.85 7.96875V6.5625H5.65V7.96875H5.85ZM5.75 6.6625H11.375V6.4625H5.75V6.6625ZM11.275 6.5625V7.96875H11.475V6.5625H11.275ZM11.275 7.96875C11.275 8.28765 11.5248 8.5375 11.8438 8.5375V8.3375C11.6353 8.3375 11.475 8.17719 11.475 7.96875H11.275ZM11.8438 8.5375C12.1293 8.5375 12.4125 8.29162 12.4125 7.96875H12.2125C12.2125 8.17323 12.027 8.3375 11.8438 8.3375V8.5375ZM12.4125 7.96875V6.5625H12.2125V7.96875H12.4125ZM12.3125 6.6625H14.1875V6.4625H12.3125V6.6625ZM14.0875 6.5625V14.5312H14.2875V6.5625H14.0875Z" fill="black"/>
<circle cx="16" cy="9" r="5" fill="#F6EFE7"/>
<path d="M14.654 9.1946C14.654 8.909 14.6761 8.6659 14.7203 8.4653C14.7679 8.2613 14.8291 8.0913 14.9039 7.9553C14.9787 7.8159 15.062 7.7054 15.1538 7.6238C15.249 7.5388 15.3442 7.4759 15.4394 7.4351C15.538 7.3909 15.6315 7.362 15.7199 7.3484C15.8117 7.3348 15.8916 7.328 15.9596 7.328C16.0276 7.328 16.1058 7.3348 16.1942 7.3484C16.286 7.362 16.3795 7.3909 16.4747 7.4351C16.5733 7.4759 16.6685 7.5388 16.7603 7.6238C16.8555 7.7054 16.9405 7.8159 17.0153 7.9553C17.0901 8.0913 17.1496 8.2613 17.1938 8.4653C17.2414 8.6659 17.2652 8.909 17.2652 9.1946C17.2652 9.4802 17.2414 9.725 17.1938 9.929C17.1496 10.1296 17.0901 10.2996 17.0153 10.439C16.9405 10.575 16.8555 10.6855 16.7603 10.7705C16.6685 10.8521 16.5733 10.915 16.4747 10.9592C16.3795 11 16.286 11.0272 16.1942 11.0408C16.1058 11.0544 16.0276 11.0612 15.9596 11.0612C15.8916 11.0612 15.8117 11.0544 15.7199 11.0408C15.6315 11.0272 15.538 11 15.4394 10.9592C15.3442 10.915 15.249 10.8521 15.1538 10.7705C15.062 10.6855 14.9787 10.575 14.9039 10.439C14.8291 10.2996 14.7679 10.1296 14.7203 9.929C14.6761 9.725 14.654 9.4802 14.654 9.1946ZM15.266 9.1946C15.266 9.3068 15.2728 9.4377 15.2864 9.5873C15.3034 9.7335 15.3357 9.8729 15.3833 10.0055C15.4309 10.1381 15.5006 10.2503 15.5924 10.3421C15.6842 10.4339 15.8066 10.4798 15.9596 10.4798C16.1126 10.4798 16.235 10.4339 16.3268 10.3421C16.4186 10.2503 16.4883 10.1381 16.5359 10.0055C16.5835 9.8729 16.6141 9.7335 16.6277 9.5873C16.6447 9.4377 16.6532 9.3068 16.6532 9.1946C16.6532 9.0824 16.6447 8.9532 16.6277 8.807C16.6141 8.6574 16.5835 8.5163 16.5359 8.3837C16.4883 8.2511 16.4186 8.1389 16.3268 8.0471C16.235 7.9553 16.1126 7.9094 15.9596 7.9094C15.8066 7.9094 15.6842 7.9553 15.5924 8.0471C15.5006 8.1389 15.4309 8.2511 15.3833 8.3837C15.3357 8.5163 15.3034 8.6574 15.2864 8.807C15.2728 8.9532 15.266 9.0824 15.266 9.1946Z" fill="black"/>
</svg>
