<svg width="21" height="20" viewBox="0 0 21 20" fill="none" xmlns="http://www.w3.org/2000/svg">
<path d="M9.00047 11C7.50047 9 8.00046 5.5 10.5005 5.5C13.0005 5.5 13.5005 9 12.0005 11M8.70822 14.4548L8.71621 14.4511L8.72407 14.4472C9.13485 14.2418 9.67007 13.8098 9.91831 13.1514C10.1813 12.454 10.0829 11.6099 9.40047 10.7C8.74244 9.82263 8.5186 8.59828 8.73856 7.60846C8.84738 7.11874 9.05833 6.7152 9.34642 6.43912C9.62683 6.17038 10.0023 6 10.5005 6C10.9986 6 11.3741 6.17038 11.6545 6.43912C11.9426 6.7152 12.1535 7.11874 12.2624 7.60846C12.4823 8.59828 12.2585 9.82263 11.6005 10.7C10.9181 11.6099 10.8197 12.454 11.0826 13.1514C11.3309 13.8098 11.8661 14.2418 12.2769 14.4472L12.3016 14.4596L12.3276 14.4692L15.3235 15.5728C14.0675 16.7676 12.3695 17.5 10.4999 17.5C8.72509 17.5 7.10499 16.84 5.87079 15.751L8.70822 14.4548ZM17.4999 10.5C17.4999 12.1092 16.9575 13.5906 16.045 14.7729L12.7015 13.5412C12.4499 13.4091 12.1495 13.1464 12.0183 12.7986C11.8979 12.4793 11.8829 11.9901 12.4005 11.3C13.2424 10.1774 13.5186 8.65171 13.2386 7.39153C13.0974 6.75625 12.8083 6.15979 12.3464 5.71713C11.8768 5.26711 11.2523 5 10.5005 5C9.74863 5 9.12409 5.26711 8.65451 5.71713C8.1926 6.15979 7.90354 6.75625 7.76237 7.39153C7.48233 8.65171 7.75849 10.1774 8.60047 11.3C9.11806 11.9901 9.103 12.4793 8.98262 12.7986C8.84879 13.1535 8.53863 13.4198 8.28406 13.5492L5.12955 14.9902C4.11196 13.7745 3.49993 12.2092 3.49993 10.5C3.49993 6.63401 6.63394 3.5 10.4999 3.5C14.3659 3.5 17.4999 6.63401 17.4999 10.5Z" stroke="black"/>
</svg>
